# xmcd
# Track frame offsets:
# 150
# 11737
# 23625
# 37362
# 50050
# 62600
# 77400
# 87550
# 96950
# 110812
#
# Disc length: 1668 seconds
# Revision: 0
# Processed by: cddbd v1.4PL0 Copyright (c) Steve Scherf et al.
# Submitted via: VisiTrax 2.9.5.181 - For more info visit www.synapsa.com
#
DISCID=8406820a
DTITLE=Joe Stampley - Pure Country
DYEAR=1998
DGENRE=
TTITLE0=Roll On Big Mama
TTITLE1=Whiskey Talkin'
TTITLE2=There She Goes Again
TTITLE3=Red Wine And Blue Memories
TTITLE4=Do You Ever Fool Around
TTITLE5=If You've Got ten Minutes (Let's Fall In Love)
TTITLE6=I'm Gonna Love You Back To Loving Me Again
TTITLE7=I'm Goin' Hurtin'
TTITLE8=Poor Side Of Town
TTITLE9=Brown Eyed Girl
EXTD=
EXTT0=
EXTT1=
EXTT2=
EXTT3=
EXTT4=
EXTT5=
EXTT6=
EXTT7=
EXTT8=
EXTT9=
PLAYORDER=
